<svg xmlns="http://www.w3.org/2000/svg" width="24" height="24" viewBox="0 0 24 24" fill="none">
    <path d="M20.3536 17.3536C20.5488 17.1583 20.5488 16.8417 20.3536 16.6464L17.1716 13.4645C16.9763 13.2692 16.6597 13.2692 16.4645 13.4645C16.2692 13.6597 16.2692 13.9763 16.4645 14.1716L19.2929 17L16.4645 19.8284C16.2692 20.0237 16.2692 20.3403 16.4645 20.5355C16.6597 20.7308 16.9763 20.7308 17.1716 20.5355L20.3536 17.3536ZM4 17.5H20V16.5H4V17.5Z" fill="#F2F2F2"/>
    <path d="M3.64645 8.35355C3.45119 8.15829 3.45119 7.84171 3.64645 7.64645L6.82843 4.46447C7.02369 4.2692 7.34027 4.2692 7.53553 4.46447C7.7308 4.65973 7.7308 4.97631 7.53553 5.17157L4.70711 8L7.53553 10.8284C7.7308 11.0237 7.7308 11.3403 7.53553 11.5355C7.34027 11.7308 7.02369 11.7308 6.82843 11.5355L3.64645 8.35355ZM20 8.5H4V7.5H20V8.5Z" fill="#F2F2F2"/>
</svg>
